<?xml version="1.0" encoding="UTF-8" standalone="no"?>
<!-- Uploaded to: SVG Repo, www.svgrepo.com, Generator: SVG Repo Mixer Tools -->

<svg
   width="800px"
   height="800px"
   viewBox="-4 0 24 24"
   id="meteor-icon-kit__solid-microphone"
   fill="none"
   version="1.1"
   sodipodi:docname="microphone-on.svg"
   inkscape:version="1.3.2 (091e20ef0f, 2023-11-25, custom)"
   xmlns:inkscape="http://www.inkscape.org/namespaces/inkscape"
   xmlns:sodipodi="http://sodipodi.sourceforge.net/DTD/sodipodi-0.dtd"
   xmlns="http://www.w3.org/2000/svg"
   xmlns:svg="http://www.w3.org/2000/svg">
  <defs
     id="defs2" />
  <sodipodi:namedview
     id="namedview2"
     pagecolor="#ffffff"
     bordercolor="#999999"
     borderopacity="1"
     inkscape:showpageshadow="2"
     inkscape:pageopacity="0"
     inkscape:pagecheckerboard="0"
     inkscape:deskcolor="#d1d1d1"
     inkscape:zoom="0.5075"
     inkscape:cx="399.01478"
     inkscape:cy="399.01478"
     inkscape:window-width="1904"
     inkscape:window-height="1014"
     inkscape:window-x="5"
     inkscape:window-y="55"
     inkscape:window-maximized="1"
     inkscape:current-layer="meteor-icon-kit__solid-microphone" />
  <path
     fill-rule="evenodd"
     clip-rule="evenodd"
     d="M8 0C5.23858 0 3 2.23858 3 5V13C3 15.7614 5.23858 18 8 18C10.7614 18 13 15.7614 13 13V5C13 2.23858 10.7614 0 8 0z"
     fill="#758CA3"
     id="path1"
     style="fill:#a975cd;fill-opacity:1" />
  <path
     d="M2 11.5882C2 11.0359 1.55228 10.5882 1 10.5882C0.44772 10.5882 0 11.0359 0 11.5882V13.647C0 17.4729 3.12354 20.4939 7 20.9425V22H5C4.44772 22 4 22.4477 4 23C4 23.5523 4.44772 24 5 24H11C11.5523 24 12 23.5523 12 23C12 22.4477 11.5523 22 11 22H9V20.9425C12.8765 20.4939 16 17.4729 16 13.647V11.5882C16 11.0359 15.5523 10.5882 15 10.5882C14.4477 10.5882 14 11.0359 14 11.5882V13.647C14 16.5143 11.4072 19 8 19C4.59282 19 2 16.5143 2 13.647V11.5882z"
     fill="#758CA3"
     id="path2"
     style="fill:#a975cd;fill-opacity:1" />
</svg>
